<?xml version="1.0" standalone="no"?>
<!DOCTYPE svg PUBLIC "-//W3C//DTD SVG 20010904//EN"
 "http://www.w3.org/TR/2001/REC-SVG-20010904/DTD/svg10.dtd">
<svg version="1.0" xmlns="http://www.w3.org/2000/svg"
 width="1151.000000pt" height="1280.000000pt" viewBox="0 0 1151.000000 1280.000000"
 preserveAspectRatio="xMidYMid meet">
<metadata>
Created by potrace 1.15, written by Peter Selinger 2001-2017
</metadata>
<g transform="translate(0.000000,1280.000000) scale(0.100000,-0.100000)"
fill="#0083b4" stroke="none">
<path d="M2592 12785 c-211 -46 -387 -217 -449 -435 -17 -63 -18 -241 -18
-4940 0 -4699 1 -4877 18 -4940 29 -103 84 -198 157 -271 72 -72 129 -109 229
-148 l66 -26 4180 -3 c3008 -2 4198 0 4245 8 212 36 377 181 463 407 l22 58 3
3158 2 3157 -2034 0 c-1430 0 -2051 3 -2088 11 -167 34 -332 164 -406 320 -22
46 -45 108 -51 137 -8 37 -11 575 -11 1787 l0 1735 -2132 -1 c-1770 0 -2144
-3 -2196 -14z"/>
<path d="M7320 11262 c0 -1066 3 -1547 11 -1584 43 -212 231 -404 442 -453 57
-13 287 -15 1896 -13 l1830 3 -2070 1775 c-1138 976 -2079 1781 -2089 1789
-20 13 -20 -1 -20 -1517z"/>
<path d="M464 10765 c-78 -17 -178 -66 -242 -119 -92 -76 -145 -153 -196 -286
l-21 -55 -3 -4880 c-2 -4435 -1 -4887 13 -4953 50 -225 236 -410 460 -457 105
-22 8334 -22 8439 0 214 45 392 216 452 435 16 57 18 113 18 455 l1 390 -3705
5 c-3561 5 -3707 6 -3760 23 -184 62 -321 196 -393 384 l-22 58 -3 4508 -2
4507 -488 -1 c-363 0 -502 -4 -548 -14z"/>
</g>
</svg>
